<?xml version="1.0" encoding="iso-8859-1"?>
<!-- Generator: Adobe Illustrator 19.0.0, SVG Export Plug-In . SVG Version: 6.00 Build 0)  -->
<svg version="1.1" id="Layer_1" xmlns="http://www.w3.org/2000/svg" xmlns:xlink="http://www.w3.org/1999/xlink" x="0px" y="0px"
	 viewBox="0 0 392.598 392.598" style="enable-background:new 0 0 392.598 392.598;" xml:space="preserve">
<path style="fill:#FFFFFF;" d="M225.887,22.105c-53.269,0-79.644,22.238-100.978,84.945c-0.388,1.164-1.034,2.263-1.681,3.168
	c-28.121,35.879-93.867,139.378-62.836,189.479c6.4,6.788,69.301,71.176,159.03,71.176c29.802,0,59.798-7.111,89.277-21.075
	c10.602-2.715,21.075-3.038,31.612-0.453v-128.97c-7.499,5.495-15.838,12.024-24.889,19.653c-5.236,4.59-13.576,2.457-16.679-3.426
	c-40.598-41.18-82.941-38.271-126.901,1.487l-10.214,12.347c-10.408,11.313-24.63-2.392-16.743-13.899l10.408-12.671l0,0
	c0,0,0-0.065,0.065-0.065c0.388-0.453,11.572-15.192,5.301-46.545c-3.297-16.873-4.396-31.935-3.232-46.028
	c0.905-11.572,3.879-46.933,26.634-47.127c22.949-0.259,42.085-4.461,56.954-12.671c14.222-7.822,18.554-24.566,12.541-38.659
	C247.738,19.454,225.887,22.105,225.887,22.105z"/>
<g>
	<path style="fill:#FFC10D;" d="M234.614,44.278c-1.293-0.129-47.386-2.457-63.806,20.105c4.396-1.487,8.792-2.004,12.994-2.069
		C202.873,62.121,234.679,53.911,234.614,44.278z"/>
	<path style="fill:#FFC10D;" d="M297.968,282.953c0,0-7.37-23.467-24.048-39.822v5.947c0,5.43-3.685,10.408-9.051,11.378
		c-6.788,1.099-12.735-4.073-12.735-10.731v-19.911c-4.59-1.422-19.523-1.487-21.786-1.164v42.02c0,5.43-3.685,10.408-9.051,11.378
		c-6.788,1.099-12.735-4.073-12.735-10.731v-35.103c-3.62,2.004-55.919,33.745-55.919,33.745
		c-14.222,6.853-29.802-6.335-25.341-21.463l11.378-38.723c0,0,4.719-8.016,0.646-28.186c-3.685-18.683-4.913-35.62-3.62-51.717
		c-35.362,47.063-74.925,124.121-57.794,156.574c10.667,10.796,65.81,62.578,141.511,62.578c26.505,0,53.398-6.4,79.838-18.941
		c0,0,12.606-3.62,19.135-4.073v-60.121L297.968,282.953z"/>
</g>
<g>
	<path style="fill:#194F82;" d="M42.55,312.238C42.226,311.785,42.808,312.69,42.55,312.238L42.55,312.238z"/>
	<path style="fill:#194F82;" d="M345.418,190.509c-9.891,5.947-21.657,14.481-34.909,25.212
		c-14.545-16.614-41.697-31.289-73.244-31.289c-14.222,0-33.164,3.103-53.01,15.127c0.388-7.758-0.129-16.549-2.133-26.505
		c-2.909-14.869-3.943-27.927-2.909-40.016c1.616-19.459,5.107-25.6,6.271-27.152c26.117-0.388,48.356-5.56,66.133-15.386
		c24.566-13.576,34.004-44.024,21.204-68.073c-14.158-26.44-46.804-22.174-46.804-22.174c-62.578,0-96.646,27.539-121.018,98.004
		C92.651,114.42-2.509,242.42,42.614,312.238c3.103,4.073,72.727,81.067,176.808,80.356c32.582-0.259,65.358-7.564,97.293-22.562
		c10.537-1.228,20.234-1.099,26.828,4.784c7.24,5.818,18.877,1.616,18.489-7.887V199.882
		C361.515,190.767,352.788,186.436,345.418,190.509z M340.182,349.28c-10.537-2.521-21.01-2.263-31.612,0.453
		c-29.414,13.964-59.41,21.075-89.277,21.075c-89.729,0-152.63-64.388-159.03-71.176c-31.095-50.101,34.715-153.535,62.836-189.414
		c0.776-1.034,1.293-2.004,1.681-3.168c21.333-62.772,47.774-84.945,100.978-84.945c0,0,21.85-2.651,27.604,10.667
		c6.012,14.093,1.616,30.772-12.541,38.659c-14.869,8.21-33.939,12.412-56.954,12.671c-22.82,0.259-25.729,35.556-26.634,47.127
		c-1.164,14.158-0.065,29.22,3.232,46.028c6.271,31.289-5.042,46.028-5.301,46.545c0,0,0,0.065-0.065,0.065l0,0l-10.343,12.606
		c-7.887,11.507,6.335,25.212,16.743,13.899l10.214-12.347c22.303-20.234,44.283-30.901,65.81-31.16
		c20.816-0.129,41.115,9.438,61.026,29.673c3.103,5.883,11.442,7.952,16.679,3.426c9.05-7.564,17.325-14.158,24.889-19.653
		L340.182,349.28L340.182,349.28z"/>
</g>
<g>
</g>
<g>
</g>
<g>
</g>
<g>
</g>
<g>
</g>
<g>
</g>
<g>
</g>
<g>
</g>
<g>
</g>
<g>
</g>
<g>
</g>
<g>
</g>
<g>
</g>
<g>
</g>
<g>
</g>
</svg>
