<?xml version="1.0" encoding="iso-8859-1"?>
<!-- Generator: Adobe Illustrator 19.0.0, SVG Export Plug-In . SVG Version: 6.00 Build 0)  -->
<svg version="1.1" id="Layer_1" xmlns="http://www.w3.org/2000/svg" xmlns:xlink="http://www.w3.org/1999/xlink" x="0px" y="0px"
	 viewBox="0 0 512 512" style="enable-background:new 0 0 512 512;" xml:space="preserve">
<path style="fill:#97C2F7;" d="M368.116,24.303h-28.401c0,45.401-36.799,82.2-82.2,82.2c-45.387,0-82.2-36.799-82.2-82.2h-31.43
	c-71.989,0-130.36,58.371-130.36,130.36v275.353h3.043h92.438h293.99h95.481V154.663C498.476,82.674,440.105,24.303,368.116,24.303z
	"/>
<g>
	<polygon style="fill:#D2E3F7;" points="109.005,430.016 109.005,487.697 13.524,487.697 13.524,430.016 16.567,430.016 	"/>
	<rect x="109.005" y="430.016" style="fill:#D2E3F7;" width="293.99" height="57.681"/>
	<rect x="402.995" y="430.016" style="fill:#D2E3F7;" width="95.481" height="57.681"/>
</g>
<path style="fill:#6F97C7;" d="M175.314,24.303h164.4c0,45.401-36.799,82.2-82.2,82.2
	C212.127,106.503,175.314,69.704,175.314,24.303z"/>
<g>
	<path style="fill:#2E1C10;" d="M211.37,162.629c7.465,0,13.524-6.045,13.524-13.524c0-7.465-6.059-13.524-13.524-13.524
		s-13.524,6.059-13.524,13.524C197.846,156.583,203.905,162.629,211.37,162.629z"/>
	<path style="fill:#2E1C10;" d="M211.37,205.014c7.465,0,13.524-6.059,13.524-13.524c0-7.479-6.059-13.524-13.524-13.524
		s-13.524,6.045-13.524,13.524C197.846,198.955,203.905,205.014,211.37,205.014z"/>
	<path style="fill:#2E1C10;" d="M512,487.697V154.663c0-79.339-64.547-143.884-143.884-143.884H143.884
		C64.547,10.779,0,75.325,0,154.663v333.034c0,7.469,6.055,13.524,13.524,13.524h95.481h293.99h95.481
		C505.945,501.221,512,495.166,512,487.697z M257.515,92.979c-33.24,0-61.032-23.739-67.332-55.152h134.663
		C318.547,69.24,290.755,92.979,257.515,92.979z M143.884,37.827h18.878c5.964,41.978,39.25,75.262,81.228,81.226v83.471
		c0,7.469,6.055,13.524,13.524,13.524c7.469,0,13.524-6.055,13.524-13.524v-83.471c41.978-5.964,75.262-39.249,81.226-81.226h15.85
		c64.424,0,116.836,52.412,116.836,116.836v261.829h-68.433v-212.52c0-7.469-6.055-13.524-13.524-13.524
		c-7.469,0-13.524,6.055-13.524,13.524v212.52H122.529V160.695c0-7.469-6.055-13.524-13.524-13.524
		c-7.469,0-13.524,6.055-13.524,13.524v255.797H27.048V154.663C27.048,90.24,79.46,37.827,143.884,37.827z M27.048,443.54h68.433
		v30.632H27.048V443.54z M122.529,443.54h266.941v30.632H122.529V443.54z M416.519,474.173V443.54h68.433v30.632H416.519z"/>
	<path style="fill:#2E1C10;" d="M402.995,174.219c7.479,0,13.524-6.059,13.524-13.524c0-7.479-6.045-13.524-13.524-13.524
		c-7.465,0-13.524,6.045-13.524,13.524C389.471,168.16,395.529,174.219,402.995,174.219z"/>
</g>
<g>
</g>
<g>
</g>
<g>
</g>
<g>
</g>
<g>
</g>
<g>
</g>
<g>
</g>
<g>
</g>
<g>
</g>
<g>
</g>
<g>
</g>
<g>
</g>
<g>
</g>
<g>
</g>
<g>
</g>
</svg>
